<svg width="95" height="110" viewBox="0 0 95 110" fill="none" xmlns="http://www.w3.org/2000/svg">
<g clip-path="url(#clip0_1125_258)">
<path d="M82.3562 109.718H12.6444C10.4851 109.715 8.36599 109.134 6.50721 108.035C4.64842 106.936 3.11772 105.359 2.07404 103.469C1.03036 101.579 0.511764 99.4433 0.572108 97.2848C0.632452 95.1264 1.26953 93.0234 2.4172 91.1943L7.16553 83.6283L31.8464 44.285V10.577H21.4105V0.141113H73.59V10.577H63.1541V44.285L87.835 83.6283L92.5833 91.1943C93.731 93.0234 94.3681 95.1264 94.4284 97.2848C94.4888 99.4433 93.9702 101.579 92.9265 103.469C91.8828 105.359 90.3521 106.936 88.4933 108.035C86.6346 109.134 84.5155 109.715 82.3562 109.718Z" fill="#261C15"/>
</g>
<defs>
<clipPath id="clip0_1125_258">
<rect width="93.9231" height="110" fill="white" transform="translate(0.538574)"/>
</clipPath>
</defs>
</svg>
