<svg width="111" height="110" viewBox="0 0 111 110" fill="none" xmlns="http://www.w3.org/2000/svg">
<g clip-path="url(#clip0_1125_263)">
<path d="M73.7332 3.59486C65.8933 0.729922 57.8623 -0.0431577 50.0633 0.684447C41.0228 1.39841 36.6117 4.19514 36.8755 3.69036C22.0915 8.96549 9.59034 20.3207 3.80589 36.237C-6.4988 64.5863 8.09875 95.9369 36.4026 106.26C64.7245 116.583 96.0252 101.962 106.334 73.6131C116.644 45.2684 102.046 13.9177 73.7332 3.59486ZM38.267 101.135C35.3113 100.041 32.468 98.6642 29.7768 97.0238C42.9646 98.0379 60.1816 95.0001 71.7914 84.1361C71.7914 84.1361 93.9197 66.4553 77.9078 37.4376C77.9078 37.4376 80.4908 49.1338 77.1984 58.7518C77.1984 58.7518 74.0606 71.835 60.1134 75.6322C39.5722 81.2302 16.1661 66.8555 6.37979 59.8841C5.64309 52.7263 6.29793 45.3321 8.9264 38.1106C12.8145 27.4148 20.127 19.0655 29.0583 13.463C26.83 29.0883 28.5945 43.4767 31.132 49.5021C34.5381 57.5831 40.4544 67.0101 52.0051 68.2152C63.5558 69.4294 69.9224 58.6199 69.9224 58.6199C75.8523 49.6158 76.78 36.6872 76.6891 36.3734C76.5981 36.0551 75.1111 35.2047 75.1111 35.2047C71.1229 51.3439 64.5472 56.7327 64.5472 56.7327C54.1788 66.7418 46.8346 59.8023 46.8346 59.8023C38.9401 51.3212 44.4699 37.5421 44.4699 37.5421C47.5622 28.1561 56.5663 14.4225 66.7755 7.43752C68.4763 7.8559 70.1861 8.11965 71.8687 8.72902C77.846 10.916 83.3368 14.2531 88.0306 18.5517C80.5681 21.2756 68.5172 27.0328 68.5172 27.0328C49.413 35.0819 48.1215 47.2511 48.1215 47.2511C46.1434 59.7932 56.0979 54.4817 56.0979 54.4817C66.3389 49.493 71.373 33.9451 71.373 33.9451C68.1761 33.3357 65.6568 34.3089 65.6568 34.3089C61.5686 44.4044 53.2284 48.5517 53.2284 48.5517C49.9451 50.2889 49.1811 47.2193 49.1811 47.2193C48.6263 44.9182 51.5549 44.5271 51.5549 44.5271C56.1024 42.7582 59.0083 37.9833 59.6677 36.0324C60.3225 34.0769 61.5413 33.9223 61.5413 33.9223C65.4171 32.7042 69.4082 31.8889 73.4512 31.4894C81.182 30.539 93.0192 34.227 93.0192 34.227C95.675 35.2957 98.2216 36.0915 100.482 36.7327C104.82 47.574 105.507 59.916 101.209 71.7486C91.9369 97.2603 63.7559 110.421 38.267 101.135Z" fill="#261C15"/>
</g>
<defs>
<clipPath id="clip0_1125_263">
<rect width="110" height="110" fill="white" transform="translate(0.5)"/>
</clipPath>
</defs>
</svg>
