<svg width="838" height="306" viewBox="0 0 838 306" fill="none" xmlns="http://www.w3.org/2000/svg">
<path d="M32.5318 60.9966V18.6979H17.2487V23.252C17.2487 23.7665 17.0429 24.2039 16.6312 24.5642C16.2196 24.8729 15.7307 25.0273 15.1647 25.0273C14.5986 25.0273 14.1098 24.8729 13.6981 24.5642C13.2865 24.2039 13.0806 23.7665 13.0806 23.252V16.9226C13.0806 16.408 13.2865 15.9706 13.6981 15.6104C14.1098 15.2502 14.5729 15.0701 15.0875 15.0701H54.0671C54.6331 15.0701 55.122 15.2502 55.5336 15.6104C55.9453 15.9706 56.1511 16.408 56.1511 16.9226V23.252C56.1511 23.7665 55.9453 24.2039 55.5336 24.5642C55.122 24.8729 54.6331 25.0273 54.0671 25.0273C53.501 25.0273 53.0122 24.8729 52.6005 24.5642C52.1889 24.2039 51.983 23.7665 51.983 23.252V18.6979H36.6999V60.9966C36.6999 61.5111 36.4941 61.9228 36.0824 62.2316C35.6708 62.5918 35.1819 62.7719 34.6159 62.7719C34.0498 62.7719 33.561 62.5918 33.1493 62.2316C32.7377 61.9228 32.5318 61.5111 32.5318 60.9966ZM66.5666 60.9966C66.5666 61.5111 66.3608 61.9228 65.9491 62.2316C65.5374 62.5918 65.0486 62.7719 64.4826 62.7719C63.9165 62.7719 63.4277 62.5918 63.016 62.2316C62.6043 61.9228 62.3985 61.5111 62.3985 60.9966V7.73732H57.3041C56.7895 7.73732 56.3779 7.58294 56.0691 7.27419C55.7089 6.91398 55.5288 6.47659 55.5288 5.96201C55.5288 5.44742 55.7089 5.01003 56.0691 4.64982C56.3779 4.28961 56.7895 4.10951 57.3041 4.10951H64.5597C65.0743 4.10951 65.5374 4.28961 65.9491 4.64982C66.3608 5.01003 66.5666 5.44742 66.5666 5.96201V38.3035C69.757 34.2383 73.5392 32.2057 77.9131 32.2057C80.7948 32.2057 83.0847 32.9518 84.7828 34.4441C86.5324 35.885 87.4072 37.9176 87.4072 40.5419V56.9828C87.4072 57.9091 88.1019 58.3722 89.4912 58.3722H92.5015C93.0161 58.3722 93.4278 58.5523 93.7365 58.9125C94.0968 59.2727 94.2769 59.7101 94.2769 60.2247C94.2769 60.7393 94.0968 61.1767 93.7365 61.5369C93.4278 61.8456 93.0161 62 92.5015 62H89.4912C85.3231 62 83.2391 60.3276 83.2391 56.9828V40.5419C83.2391 37.3515 81.4638 35.7563 77.9131 35.7563C73.179 35.7563 69.3968 38.2778 66.5666 43.3207V60.9966ZM121.095 45.0188C120.941 42.24 120.118 40.0273 118.625 38.3807C117.184 36.734 115.075 35.9107 112.296 35.9107C109.569 35.9107 107.279 36.7597 105.426 38.4579C103.574 40.1045 102.416 42.2915 101.953 45.0188H121.095ZM121.25 54.59C121.61 53.9725 122.021 53.6638 122.485 53.6638C122.948 53.6638 123.411 53.7924 123.874 54.0497C124.337 54.2555 124.646 54.6157 124.8 55.1303C125.006 55.5935 124.98 56.0308 124.723 56.4425C122.099 60.6621 117.931 62.7719 112.219 62.7719C107.69 62.7719 104.114 61.331 101.49 58.4494C98.9167 55.5163 97.6303 51.837 97.6303 47.4116C97.6303 42.9862 98.9682 39.3841 101.644 36.6054C104.32 33.7752 107.845 32.3601 112.219 32.3601C116.593 32.3601 119.834 33.6723 121.944 36.2966C124.106 38.921 125.186 42.4202 125.186 46.7941C125.186 47.9776 124.517 48.5694 123.179 48.5694L101.798 48.6466C102.004 51.837 103.033 54.4099 104.886 56.3653C106.79 58.2693 109.234 59.2213 112.219 59.2213C116.232 59.2213 119.243 57.6775 121.25 54.59ZM191.656 58.3722H194.512C195.027 58.3722 195.439 58.5523 195.747 58.9125C196.108 59.2727 196.288 59.7101 196.288 60.2247C196.288 60.7393 196.108 61.1767 195.747 61.5369C195.439 61.8456 195.027 62 194.512 62H191.656C189.392 62 187.823 61.5111 186.948 60.5334C186.125 59.5557 185.713 58.4494 185.713 57.2144V40.2332H157.385V60.9966C157.385 61.5111 157.179 61.9228 156.768 62.2316C156.356 62.5918 155.867 62.7719 155.301 62.7719C154.735 62.7719 154.246 62.5918 153.835 62.2316C153.423 61.9228 153.217 61.5111 153.217 60.9966V18.6979H148.74C148.226 18.6979 147.788 18.5435 147.428 18.2348C147.119 17.8746 146.965 17.4372 146.965 16.9226C146.965 16.408 147.119 15.9706 147.428 15.6104C147.788 15.2502 148.226 15.0701 148.74 15.0701H155.378C155.893 15.0701 156.356 15.2502 156.768 15.6104C157.179 15.9706 157.385 16.408 157.385 16.9226V36.6054H185.713V18.6979H181.159C180.644 18.6979 180.207 18.5435 179.847 18.2348C179.538 17.8746 179.384 17.4372 179.384 16.9226C179.384 16.408 179.538 15.9706 179.847 15.6104C180.207 15.2502 180.644 15.0701 181.159 15.0701H187.874C188.389 15.0701 188.852 15.2502 189.264 15.6104C189.675 15.9706 189.881 16.408 189.881 16.9226V57.2144C189.881 57.9863 190.473 58.3722 191.656 58.3722ZM209.233 60.9966C209.233 61.5111 209.027 61.9228 208.615 62.2316C208.204 62.5918 207.715 62.7719 207.149 62.7719C206.583 62.7719 206.094 62.5918 205.682 62.2316C205.271 61.9228 205.065 61.5111 205.065 60.9966V36.7597H199.97C199.456 36.7597 199.018 36.6054 198.658 36.2966C198.349 35.9364 198.195 35.499 198.195 34.9844C198.195 34.4699 198.349 34.0325 198.658 33.6723C199.018 33.312 199.456 33.1319 199.97 33.1319H207.458C208.641 33.1319 209.233 33.7237 209.233 34.9073V60.9966ZM204.91 21.5538C204.447 21.0393 204.216 20.4218 204.216 19.7013C204.216 18.9809 204.447 18.3634 204.91 17.8489C205.374 17.3343 206.017 17.077 206.84 17.077C207.663 17.077 208.307 17.3343 208.77 17.8489C209.284 18.3634 209.542 18.9809 209.542 19.7013C209.542 20.4218 209.284 21.0393 208.77 21.5538C208.307 22.0684 207.663 22.3257 206.84 22.3257C206.017 22.3257 205.374 22.0684 204.91 21.5538ZM217.941 58.9897V52.7375C217.941 52.2229 218.147 51.8113 218.559 51.5025C218.97 51.1423 219.459 50.9622 220.025 50.9622C220.591 50.9622 221.08 51.1423 221.492 51.5025C221.903 51.8113 222.109 52.2229 222.109 52.7375V57.9863C224.579 58.8096 227.152 59.2213 229.828 59.2213C235.694 59.2213 238.627 57.5746 238.627 54.2813C238.627 51.8113 235.874 49.9845 230.368 48.801C230.111 48.7495 229.545 48.6209 228.67 48.415C227.795 48.2092 227.075 48.0548 226.509 47.9519C225.943 47.7975 224.991 47.4888 223.653 47.0257C222.367 46.5111 221.44 45.9965 220.874 45.4819C219.331 44.0925 218.559 42.3944 218.559 40.3876C218.559 38.3292 219.228 36.6826 220.566 35.4476C221.955 34.1611 223.473 33.3378 225.12 32.9776C226.766 32.5659 228.567 32.3601 230.523 32.3601C234.125 32.3601 237.444 33.0548 240.48 34.4441C241.406 34.8558 241.869 35.4218 241.869 36.1422V42.0857C241.869 42.6003 241.663 43.0376 241.252 43.3979C240.84 43.7066 240.351 43.861 239.785 43.861C239.219 43.861 238.73 43.7066 238.319 43.3979C237.907 43.0376 237.701 42.6003 237.701 42.0857V37.1457C235.643 36.3224 233.25 35.9107 230.523 35.9107C225.274 35.9107 222.65 37.403 222.65 40.3876C222.65 41.4682 222.984 42.2143 223.653 42.626C224.373 43.0376 224.888 43.3464 225.197 43.5522C225.557 43.7581 226.174 43.9639 227.049 44.1697C228.284 44.4785 229.545 44.7615 230.831 45.0188C232.118 45.2761 233.173 45.5076 233.996 45.7135C234.819 45.9193 235.849 46.2795 237.084 46.7941C238.37 47.2572 239.374 47.7975 240.094 48.415C241.895 49.8559 242.795 51.7341 242.795 54.0497C242.795 56.3653 242.024 58.2178 240.48 59.6072C238.988 60.9451 237.341 61.7942 235.54 62.1544C233.79 62.566 231.886 62.7719 229.828 62.7719C225.763 62.7719 222.264 62.1029 219.331 60.765C218.404 60.3533 217.941 59.7616 217.941 58.9897ZM271.749 57.06C272.161 56.8027 272.624 56.7255 273.139 56.8284C273.705 56.9314 274.091 57.1629 274.296 57.5231C274.502 57.8319 274.605 58.1149 274.605 58.3722C274.605 59.1441 274.322 59.7101 273.756 60.0703C270.669 61.8714 267.35 62.7719 263.799 62.7719C260.248 62.7719 257.701 62.0515 256.157 60.6106C254.614 59.1183 253.842 56.6741 253.842 53.2778V36.7597H249.519C249.005 36.7597 248.567 36.6054 248.207 36.2966C247.898 35.9364 247.744 35.499 247.744 34.9844C247.744 34.4699 247.898 34.0325 248.207 33.6723C248.567 33.312 249.005 33.1319 249.519 33.1319H253.842V22.0942C253.842 21.5796 254.048 21.1679 254.459 20.8592C254.871 20.499 255.36 20.3188 255.926 20.3188C256.492 20.3188 256.981 20.499 257.392 20.8592C257.804 21.1679 258.01 21.5796 258.01 22.0942V33.1319H270.977C271.492 33.1319 271.904 33.312 272.212 33.6723C272.573 34.0325 272.753 34.4699 272.753 34.9844C272.753 35.499 272.573 35.9364 272.212 36.2966C271.904 36.6054 271.492 36.7597 270.977 36.7597H258.01V53.2778C258.01 55.4391 258.447 56.9828 259.322 57.9091C260.248 58.7839 261.921 59.2213 264.339 59.2213C266.809 59.2213 269.279 58.5008 271.749 57.06ZM293.432 59.2213C296.571 59.2213 299.118 58.1406 301.073 55.9794C303.08 53.8181 304.083 51.0394 304.083 47.6432C304.083 44.1955 303.08 41.391 301.073 39.2297C299.118 37.017 296.571 35.9107 293.432 35.9107C290.293 35.9107 287.72 37.017 285.713 39.2297C283.757 41.391 282.78 44.1955 282.78 47.6432C282.78 51.0394 283.757 53.8181 285.713 55.9794C287.72 58.1406 290.293 59.2213 293.432 59.2213ZM282.703 58.5266C279.975 55.6449 278.612 51.9914 278.612 47.566C278.612 43.1406 280.001 39.5128 282.78 36.6826C285.558 33.8009 289.109 32.3601 293.432 32.3601C297.754 32.3601 301.279 33.8009 304.006 36.6826C306.785 39.5128 308.174 43.1663 308.174 47.6432C308.174 52.0686 306.785 55.6964 304.006 58.5266C301.279 61.3568 297.728 62.7719 293.354 62.7719C289.032 62.7719 285.481 61.3568 282.703 58.5266ZM313.565 33.1319H317.502C320.744 33.1319 322.416 34.8815 322.519 38.3807C325.298 34.3669 328.591 32.3601 332.399 32.3601C334.56 32.3601 336.387 32.7717 337.879 33.5951C338.6 34.0067 338.96 34.547 338.96 35.216V41.6997C338.96 42.2143 338.754 42.6517 338.343 43.0119C337.931 43.3207 337.442 43.475 336.876 43.475C336.31 43.475 335.821 43.3207 335.409 43.0119C334.998 42.6517 334.792 42.2143 334.792 41.6997V36.2966C334.123 36.0393 333.12 35.9107 331.782 35.9107C330.444 35.9107 328.926 36.5539 327.228 37.8404C325.529 39.0754 324.063 40.9279 322.828 43.3979V60.9966C322.828 61.5111 322.622 61.9228 322.21 62.2316C321.799 62.5918 321.31 62.7719 320.744 62.7719C320.178 62.7719 319.689 62.5918 319.277 62.2316C318.866 61.9228 318.66 61.5111 318.66 60.9966V38.2263C318.66 37.2486 318.145 36.7597 317.116 36.7597H313.565C313.051 36.7597 312.613 36.6054 312.253 36.2966C311.944 35.9364 311.79 35.499 311.79 34.9844C311.79 34.4699 311.944 34.0325 312.253 33.6723C312.613 33.312 313.051 33.1319 313.565 33.1319ZM339.576 75.8937L342.046 76.1253C344.567 76.1253 346.625 75.0704 348.221 72.9606C349.456 71.3654 350.819 69.024 352.312 65.9366L354.936 60.5334L342.354 35.0616C342.149 34.5985 342.149 34.1354 342.354 33.6723C342.612 33.2091 342.972 32.8747 343.435 32.6688C343.95 32.4115 344.439 32.2829 344.902 32.2829C345.416 32.2829 345.854 32.6688 346.214 33.4407L357.097 56.2881L367.981 33.4407C368.341 32.6688 368.753 32.2829 369.216 32.2829C370.451 32.2829 371.3 32.746 371.763 33.6723C371.866 33.9295 371.917 34.1868 371.917 34.4441C371.917 34.65 371.866 34.8558 371.763 35.0616L356.017 67.4803C355.039 69.5386 354.241 71.0566 353.624 72.0344C353.058 73.0635 352.209 74.2985 351.077 75.7393C348.864 78.3637 345.828 79.6759 341.969 79.6759C340.888 79.6759 340.065 79.5987 339.499 79.4443C338.366 79.187 337.878 78.5181 338.032 77.4375C338.186 76.4083 338.701 75.8937 339.576 75.8937ZM408.61 59.2213C411.749 59.2213 414.296 58.1406 416.251 55.9794C418.258 53.8181 419.261 51.0394 419.261 47.6432C419.261 44.1955 418.258 41.391 416.251 39.2297C414.296 37.017 411.749 35.9107 408.61 35.9107C405.471 35.9107 402.898 37.017 400.891 39.2297C398.935 41.391 397.958 44.1955 397.958 47.6432C397.958 51.0394 398.935 53.8181 400.891 55.9794C402.898 58.1406 405.471 59.2213 408.61 59.2213ZM397.881 58.5266C395.153 55.6449 393.79 51.9914 393.79 47.566C393.79 43.1406 395.179 39.5128 397.958 36.6826C400.736 33.8009 404.287 32.3601 408.61 32.3601C412.932 32.3601 416.457 33.8009 419.184 36.6826C421.963 39.5128 423.352 43.1663 423.352 47.6432C423.352 52.0686 421.963 55.6964 419.184 58.5266C416.457 61.3568 412.906 62.7719 408.532 62.7719C404.21 62.7719 400.659 61.3568 397.881 58.5266ZM428.216 79.4443C427.65 79.5987 427.161 79.6759 426.749 79.6759C426.338 79.6759 425.977 79.5215 425.669 79.2128C425.308 78.904 425.128 78.4924 425.128 77.9778C425.128 77.0515 425.72 76.434 426.904 76.1253C429.579 75.3019 431.432 73.7582 432.461 71.494C433.49 69.2813 434.005 66.271 434.005 62.4631V36.7597H429.296C428.782 36.7597 428.344 36.6054 427.984 36.2966C427.675 35.9364 427.521 35.499 427.521 34.9844C427.521 34.4699 427.675 34.0325 427.984 33.6723C428.344 33.312 428.782 33.1319 429.296 33.1319H434.005V15.6876C434.005 11.2107 434.931 8.04606 436.784 6.19357C438.687 4.28961 441.595 3.33764 445.506 3.33764C449.417 3.33764 452.761 4.1867 455.54 5.88482C456.158 6.24503 456.466 6.70815 456.466 7.27419V13.9123C456.466 14.4269 456.26 14.8643 455.849 15.2245C455.437 15.5332 454.948 15.6876 454.382 15.6876C453.816 15.6876 453.327 15.5332 452.916 15.2245C452.504 14.8643 452.298 14.4269 452.298 13.9123V8.12325C450.497 7.29992 448.259 6.88825 445.583 6.88825C442.907 6.88825 440.977 7.58294 439.794 8.97231C438.662 10.3102 438.096 12.5744 438.096 15.7648V33.1319H451.526C452.041 33.1319 452.453 33.312 452.761 33.6723C453.122 34.0325 453.302 34.4699 453.302 34.9844C453.302 35.499 453.122 35.9364 452.761 36.2966C452.453 36.6054 452.041 36.7597 451.526 36.7597H438.096V62.4631C438.096 67.0429 437.401 70.6964 436.012 73.4237C434.622 76.151 432.024 78.1579 428.216 79.4443Z" fill="#261C15"/>
<path d="M86.6749 130.35C86.6749 126.973 85.8307 124.44 84.1422 122.752C82.6414 120.876 79.6396 119.938 75.137 119.938H54.8754V244.041H75.137C82.829 244.041 86.6749 239.726 86.6749 231.096V130.35ZM12.6635 85.3242H81.0467C96.2429 85.3242 107.968 88.9825 116.223 96.2992C124.666 103.616 128.887 114.403 128.887 128.662V234.473C128.887 265.053 113.784 280.343 83.5794 280.343H12.6635V85.3242ZM226.302 280.343L218.141 235.317H179.587L171.989 280.343H131.747L170.019 85.3242H228.834L266.543 280.343H226.302ZM185.497 199.577H211.949L198.442 124.159L185.497 199.577ZM314.456 209.99V280.343H272.244V85.3242H335.843C351.227 85.3242 363.234 88.9825 371.864 96.2992C380.494 103.616 384.809 114.31 384.809 128.38V164.401C384.809 186.914 377.117 200.985 361.733 206.613L392.407 280.343H345.974L319.803 209.99H314.456ZM314.456 121.345V176.502H331.059C335.374 176.502 338.376 175.564 340.065 173.688C341.753 171.811 342.597 168.528 342.597 163.838V132.039C342.597 127.911 341.659 125.097 339.783 123.596C337.907 122.095 334.999 121.345 331.059 121.345H314.456ZM441.773 280.343H399.561V85.3242H441.773V173.125L473.854 85.3242H518.88L483.141 179.597L522.257 280.343H475.261L441.773 187.195V280.343Z" fill="#DD660D"/>
<path d="M563.146 90.2511V124.262H587.267C600.534 124.262 607.167 118.553 607.167 107.136C607.167 101.106 605.478 96.804 602.101 94.2311C598.805 91.5778 593.86 90.2511 587.267 90.2511H563.146ZM563.146 129.81V156.343C563.146 157.147 562.824 157.79 562.181 158.272C561.538 158.835 560.774 159.117 559.89 159.117C559.005 159.117 558.241 158.835 557.598 158.272C556.955 157.79 556.633 157.147 556.633 156.343V90.2511H549.397C548.593 90.2511 547.909 90.0099 547.347 89.5275C546.864 88.9647 546.623 88.2812 546.623 87.4772C546.623 86.6732 546.864 85.9897 547.347 85.4269C547.909 84.8641 548.593 84.5827 549.397 84.5827H587.267C604.875 84.5827 613.68 92.1004 613.68 107.136C613.68 117.99 608.896 124.985 599.328 128.121L614.886 155.016C615.046 155.338 615.127 155.7 615.127 156.102C615.127 157.227 614.644 158.031 613.68 158.514C612.795 158.996 611.991 159.237 611.267 159.237C610.544 159.237 609.901 158.795 609.338 157.911L592.815 129.568C590.724 129.729 588.875 129.81 587.267 129.81H563.146ZM640.485 153.569C645.39 153.569 649.37 151.88 652.425 148.503C655.561 145.126 657.128 140.785 657.128 135.478C657.128 130.091 655.561 125.709 652.425 122.332C649.37 118.875 645.39 117.146 640.485 117.146C635.58 117.146 631.56 118.875 628.424 122.332C625.369 125.709 623.841 130.091 623.841 135.478C623.841 140.785 625.369 145.126 628.424 148.503C631.56 151.88 635.58 153.569 640.485 153.569ZM623.721 152.483C619.459 147.981 617.329 142.272 617.329 135.357C617.329 128.443 619.5 122.774 623.841 118.352C628.183 113.85 633.731 111.598 640.485 111.598C647.239 111.598 652.747 113.85 657.008 118.352C661.35 122.774 663.521 128.483 663.521 135.478C663.521 142.393 661.35 148.061 657.008 152.483C652.747 156.906 647.199 159.117 640.364 159.117C633.61 159.117 628.063 156.906 623.721 152.483ZM700.286 139.217C694.98 137.77 690.437 137.046 686.658 137.046C682.959 137.046 679.904 137.77 677.492 139.217C675.16 140.664 673.994 142.714 673.994 145.368C673.994 147.941 674.758 149.951 676.286 151.398C677.814 152.845 679.904 153.569 682.557 153.569C689.954 153.569 695.864 149.549 700.286 141.508V139.217ZM709.935 152.242H714.638C715.442 152.242 716.086 152.524 716.568 153.086C717.131 153.649 717.412 154.333 717.412 155.137C717.412 155.941 717.131 156.624 716.568 157.187C716.086 157.669 715.442 157.911 714.638 157.911H709.332C706.437 157.911 704.186 157.267 702.578 155.981C701.05 154.695 700.286 152.885 700.286 150.554C700.286 150.152 700.327 149.709 700.407 149.227C696.146 155.82 689.954 159.117 681.834 159.117C677.331 159.117 673.793 157.911 671.22 155.499C668.728 153.086 667.482 149.75 667.482 145.488C667.482 141.147 669.17 137.77 672.547 135.357C676.004 132.865 680.266 131.619 685.331 131.619C690.477 131.619 695.462 132.463 700.286 134.151V125.83C700.286 121.97 698.879 119.478 696.065 118.352C693.894 117.548 690.879 117.146 687.02 117.146C683.241 117.146 679.743 117.789 676.527 119.076V126.674C676.527 127.478 676.205 128.161 675.562 128.724C674.919 129.207 674.155 129.448 673.271 129.448C672.386 129.448 671.622 129.207 670.979 128.724C670.336 128.161 670.014 127.478 670.014 126.674V117.508C670.014 116.463 670.537 115.659 671.582 115.096C675.522 112.764 680.748 111.598 687.261 111.598C693.774 111.598 698.638 112.684 701.854 114.855C705.07 116.945 706.678 120.603 706.678 125.83V149.951C706.678 151.478 707.764 152.242 709.935 152.242ZM719.848 153.207V143.438C719.848 142.634 720.17 141.991 720.813 141.508C721.456 140.946 722.22 140.664 723.104 140.664C723.989 140.664 724.753 140.946 725.396 141.508C726.039 141.991 726.361 142.634 726.361 143.438V151.639C730.22 152.926 734.24 153.569 738.421 153.569C747.587 153.569 752.17 150.996 752.17 145.85C752.17 141.991 747.869 139.136 739.265 137.287C738.863 137.207 737.979 137.006 736.612 136.684C735.245 136.363 734.12 136.121 733.235 135.96C732.351 135.719 730.863 135.237 728.773 134.513C726.763 133.709 725.315 132.905 724.431 132.101C722.019 129.93 720.813 127.277 720.813 124.141C720.813 120.925 721.858 118.352 723.948 116.422C726.119 114.412 728.491 113.126 731.064 112.563C733.637 111.92 736.451 111.598 739.507 111.598C745.135 111.598 750.321 112.684 755.065 114.855C756.512 115.498 757.236 116.382 757.236 117.508V126.795C757.236 127.599 756.914 128.282 756.271 128.845C755.627 129.327 754.864 129.568 753.979 129.568C753.095 129.568 752.331 129.327 751.688 128.845C751.044 128.282 750.723 127.599 750.723 126.795V119.076C747.507 117.789 743.768 117.146 739.507 117.146C731.305 117.146 727.205 119.478 727.205 124.141C727.205 125.83 727.727 126.996 728.773 127.639C729.898 128.282 730.702 128.764 731.185 129.086C731.748 129.408 732.712 129.729 734.079 130.051C736.009 130.533 737.979 130.975 739.989 131.378C741.999 131.78 743.647 132.141 744.934 132.463C746.22 132.785 747.828 133.347 749.758 134.151C751.768 134.875 753.336 135.719 754.462 136.684C757.276 138.935 758.683 141.87 758.683 145.488C758.683 149.106 757.477 152.001 755.065 154.172C752.733 156.262 750.16 157.589 747.346 158.152C744.612 158.795 741.637 159.117 738.421 159.117C732.069 159.117 726.602 158.071 722.019 155.981C720.572 155.338 719.848 154.413 719.848 153.207ZM797.893 150.192C798.536 149.79 799.26 149.669 800.064 149.83C800.948 149.991 801.551 150.353 801.873 150.916C802.194 151.398 802.355 151.84 802.355 152.242C802.355 153.448 801.913 154.333 801.028 154.896C796.204 157.71 791.018 159.117 785.47 159.117C779.922 159.117 775.943 157.991 773.53 155.74C771.118 153.408 769.912 149.589 769.912 144.282V118.473H763.158C762.354 118.473 761.671 118.232 761.108 117.749C760.626 117.186 760.384 116.503 760.384 115.699C760.384 114.895 760.626 114.211 761.108 113.649C761.671 113.086 762.354 112.804 763.158 112.804H769.912V95.5578C769.912 94.7537 770.234 94.1105 770.877 93.6281C771.52 93.0653 772.284 92.7838 773.169 92.7838C774.053 92.7838 774.817 93.0653 775.46 93.6281C776.103 94.1105 776.425 94.7537 776.425 95.5578V112.804H796.687C797.491 112.804 798.134 113.086 798.616 113.649C799.179 114.211 799.461 114.895 799.461 115.699C799.461 116.503 799.179 117.186 798.616 117.749C798.134 118.232 797.491 118.473 796.687 118.473H776.425V144.282C776.425 147.659 777.108 150.071 778.475 151.519C779.922 152.885 782.536 153.569 786.315 153.569C790.174 153.569 794.033 152.443 797.893 150.192Z" fill="#261C15"/>
<path d="M608.494 263.118C609.056 262.314 609.7 261.912 610.423 261.912C611.147 261.912 611.911 262.274 612.715 262.998C613.599 263.641 614.041 264.284 614.041 264.928C614.041 265.571 613.8 266.174 613.318 266.737C606.564 274.857 597.277 278.918 585.458 278.918C575.005 278.918 566.483 275.46 559.89 268.546C553.297 261.551 550 252.425 550 241.168C550 229.912 553.297 220.786 559.89 213.791C566.483 206.715 574.764 203.178 584.734 203.178C594.785 203.178 603.147 205.107 609.82 208.967C611.026 209.61 611.629 210.454 611.629 211.499V221.871C611.629 222.676 611.308 223.359 610.664 223.922C610.021 224.404 609.257 224.645 608.373 224.645C607.488 224.645 606.725 224.404 606.081 223.922C605.438 223.359 605.117 222.676 605.117 221.871V212.947C599.167 210.213 592.614 208.846 585.458 208.846C576.855 208.846 569.86 211.861 564.473 217.891C559.166 223.841 556.513 231.56 556.513 241.048C556.513 250.535 559.166 258.294 564.473 264.324C569.86 270.274 577.136 273.249 586.302 273.249C595.549 273.249 602.946 269.872 608.494 263.118ZM640.014 273.37C644.918 273.37 648.898 271.681 651.954 268.304C655.09 264.928 656.657 260.586 656.657 255.279C656.657 249.892 655.09 245.51 651.954 242.133C648.898 238.676 644.918 236.947 640.014 236.947C635.109 236.947 631.089 238.676 627.953 242.133C624.898 245.51 623.37 249.892 623.37 255.279C623.37 260.586 624.898 264.928 627.953 268.304C631.089 271.681 635.109 273.37 640.014 273.37ZM623.25 272.284C618.988 267.782 616.858 262.073 616.858 255.158C616.858 248.244 619.029 242.575 623.37 238.153C627.712 233.651 633.26 231.399 640.014 231.399C646.768 231.399 652.275 233.651 656.537 238.153C660.879 242.575 663.049 248.284 663.049 255.279C663.049 262.194 660.879 267.862 656.537 272.284C652.275 276.707 646.728 278.918 639.893 278.918C633.139 278.918 627.592 276.707 623.25 272.284ZM665.443 304.968C664.558 305.21 663.794 305.33 663.151 305.33C662.508 305.33 661.945 305.089 661.463 304.607C660.9 304.124 660.619 303.481 660.619 302.677C660.619 301.23 661.543 300.265 663.392 299.782C667.573 298.496 670.468 296.084 672.076 292.546C673.684 289.089 674.488 284.385 674.488 278.435V238.274H667.131C666.327 238.274 665.644 238.033 665.081 237.55C664.598 236.987 664.357 236.304 664.357 235.5C664.357 234.696 664.598 234.012 665.081 233.45C665.644 232.887 666.327 232.605 667.131 232.605H674.488V205.349C674.488 198.353 675.935 193.409 678.83 190.514C681.805 187.539 686.348 186.052 692.458 186.052C698.569 186.052 703.795 187.378 708.137 190.032C709.102 190.595 709.584 191.318 709.584 192.203V202.575C709.584 203.379 709.263 204.062 708.619 204.625C707.976 205.107 707.212 205.349 706.328 205.349C705.443 205.349 704.68 205.107 704.036 204.625C703.393 204.062 703.072 203.379 703.072 202.575V193.529C700.257 192.243 696.76 191.6 692.579 191.6C688.398 191.6 685.383 192.685 683.533 194.856C681.765 196.946 680.88 200.484 680.88 205.469V232.605H701.865C702.67 232.605 703.313 232.887 703.795 233.45C704.358 234.012 704.639 234.696 704.639 235.5C704.639 236.304 704.358 236.987 703.795 237.55C703.313 238.033 702.67 238.274 701.865 238.274H680.88V278.435C680.88 285.591 679.795 291.3 677.624 295.561C675.453 299.823 671.393 302.958 665.443 304.968ZM702.138 304.968C701.253 305.21 700.49 305.33 699.846 305.33C699.203 305.33 698.64 305.089 698.158 304.607C697.595 304.124 697.314 303.481 697.314 302.677C697.314 301.23 698.238 300.265 700.087 299.782C704.268 298.496 707.163 296.084 708.771 292.546C710.379 289.089 711.183 284.385 711.183 278.435V238.274H703.826C703.022 238.274 702.339 238.033 701.776 237.55C701.294 236.987 701.052 236.304 701.052 235.5C701.052 234.696 701.294 234.012 701.776 233.45C702.339 232.887 703.022 232.605 703.826 232.605H711.183V205.349C711.183 198.353 712.63 193.409 715.525 190.514C718.5 187.539 723.043 186.052 729.153 186.052C735.264 186.052 740.49 187.378 744.832 190.032C745.797 190.595 746.279 191.318 746.279 192.203V202.575C746.279 203.379 745.958 204.062 745.314 204.625C744.671 205.107 743.907 205.349 743.023 205.349C742.139 205.349 741.375 205.107 740.731 204.625C740.088 204.062 739.767 203.379 739.767 202.575V193.529C736.952 192.243 733.455 191.6 729.274 191.6C725.093 191.6 722.078 192.685 720.229 194.856C718.46 196.946 717.575 200.484 717.575 205.469V232.605H738.561C739.365 232.605 740.008 232.887 740.49 233.45C741.053 234.012 741.334 234.696 741.334 235.5C741.334 236.304 741.053 236.987 740.49 237.55C740.008 238.033 739.365 238.274 738.561 238.274H717.575V278.435C717.575 285.591 716.49 291.3 714.319 295.561C712.148 299.823 708.088 302.958 702.138 304.968ZM778.271 251.179C778.03 246.837 776.743 243.379 774.411 240.806C772.16 238.234 768.864 236.947 764.522 236.947C760.26 236.947 756.682 238.274 753.788 240.927C750.893 243.5 749.084 246.917 748.361 251.179H778.271ZM778.512 266.134C779.075 265.169 779.718 264.686 780.442 264.686C781.165 264.686 781.889 264.887 782.613 265.289C783.336 265.611 783.819 266.174 784.06 266.978C784.381 267.701 784.341 268.385 783.939 269.028C779.839 275.621 773.326 278.918 764.401 278.918C757.326 278.918 751.738 276.666 747.637 272.164C743.617 267.581 741.607 261.832 741.607 254.917C741.607 248.003 743.697 242.374 747.878 238.033C752.059 233.61 757.567 231.399 764.401 231.399C771.235 231.399 776.301 233.45 779.597 237.55C782.974 241.651 784.663 247.118 784.663 253.952C784.663 255.802 783.618 256.726 781.527 256.726L748.119 256.847C748.441 261.832 750.049 265.852 752.944 268.907C755.919 271.882 759.738 273.37 764.401 273.37C770.673 273.37 775.376 270.958 778.512 266.134ZM825.359 251.179C825.117 246.837 823.831 243.379 821.499 240.806C819.248 238.234 815.951 236.947 811.61 236.947C807.348 236.947 803.77 238.274 800.876 240.927C797.981 243.5 796.172 246.917 795.449 251.179H825.359ZM825.6 266.134C826.163 265.169 826.806 264.686 827.529 264.686C828.253 264.686 828.977 264.887 829.7 265.289C830.424 265.611 830.906 266.174 831.148 266.978C831.469 267.701 831.429 268.385 831.027 269.028C826.926 275.621 820.414 278.918 811.489 278.918C804.413 278.918 798.825 276.666 794.725 272.164C790.705 267.581 788.695 261.832 788.695 254.917C788.695 248.003 790.785 242.374 794.966 238.033C799.147 233.61 804.655 231.399 811.489 231.399C818.323 231.399 823.389 233.45 826.685 237.55C830.062 241.651 831.751 247.118 831.751 253.952C831.751 255.802 830.705 256.726 828.615 256.726L795.207 256.847C795.529 261.832 797.137 265.852 800.032 268.907C803.006 271.882 806.826 273.37 811.489 273.37C817.76 273.37 822.464 270.958 825.6 266.134Z" fill="#4F0205"/>
</svg>
