<svg width="135" height="65" viewBox="0 0 135 65" fill="none" xmlns="http://www.w3.org/2000/svg">
<path d="M80.1875 22.0672C107.997 22.0672 130.541 17.1273 130.541 11.0336C130.541 4.93992 107.997 0 80.1875 0C52.3778 0 29.8335 4.93992 29.8335 11.0336C29.8335 17.1273 52.3778 22.0672 80.1875 22.0672Z" fill="#E9E2C7"/>
<path d="M26.2393 26.5783C26.2393 23.6543 27.152 21.6794 28.9855 20.6051C30.8231 19.5308 33.5331 19.5995 37.1517 20.6617C40.7704 21.7238 43.549 23.2706 45.4471 25.4434C47.3493 27.6162 48.3025 30.1404 48.3025 33.0644C48.3025 39.393 48.3025 45.7256 48.3025 52.0542C48.3025 54.9781 47.3453 57.1106 45.4471 58.3948C43.5449 59.6791 40.7704 59.8649 37.1517 58.8028C33.5331 57.7406 30.8191 55.9394 28.9855 53.5565C27.148 51.1737 26.2393 48.4921 26.2393 45.5681C26.2393 39.2395 26.2393 32.9069 26.2393 26.5783ZM40.3221 31.562C40.3221 29.7769 39.268 28.6138 37.18 27.9999C35.088 27.386 34.05 27.9353 34.05 29.7204C34.05 35.7662 34.05 41.8121 34.05 47.8539C34.05 49.639 35.088 50.8708 37.18 51.4847C39.272 52.0986 40.3221 51.4807 40.3221 49.6956C40.3221 43.6497 40.3221 37.6038 40.3221 31.562Z" fill="#E9E2C7"/>
<path d="M51.5374 24.676C57.7084 25.7503 63.827 26.5338 70.0667 27.0548C70.0667 29.8576 70.0667 31.259 70.0667 34.0619C65.919 33.7872 63.8472 33.5772 59.7197 33.0199C59.7197 36.6789 59.7197 38.5084 59.7197 42.1675C63.5241 42.6804 65.4303 42.8783 69.2509 43.1529C69.2509 46.0203 69.2509 47.4541 69.2509 50.3215C65.4303 50.0469 63.52 49.849 59.7197 49.3361C59.7197 53.92 59.7197 58.4998 59.7197 63.0837C56.4362 62.6394 54.7966 62.3729 51.5374 61.7509C51.5374 49.3926 51.5374 37.0343 51.5374 24.676Z" fill="#E9E2C7"/>
<path d="M72.6877 27.2041C78.9355 27.41 85.0905 27.3333 91.3342 26.9819C91.3342 29.7848 91.3342 31.1862 91.3342 33.989C87.1865 34.2919 85.1107 34.3727 80.9549 34.3929C80.9549 38.0519 80.9549 39.8814 80.9549 43.5404C84.7835 43.5202 86.6979 43.4516 90.5225 43.1931C90.5225 46.0606 90.5225 47.4943 90.5225 50.3617C86.7019 50.6202 84.7835 50.6889 80.9549 50.7091C80.9549 55.2929 80.9549 59.8728 80.9549 64.4566C77.6472 64.4728 75.9954 64.4365 72.6918 64.2749C72.6877 51.9207 72.6877 39.5624 72.6877 27.2041Z" fill="#E9E2C7"/>
<path d="M93.9473 26.768C100.296 26.1702 106.633 25.2454 112.856 23.8521C112.856 26.6347 112.856 28.024 112.856 30.8066C108.559 31.7476 106.398 32.1394 102.061 32.7694C102.061 35.9155 102.061 37.4866 102.061 40.6327C105.817 40.0875 107.687 39.7603 111.414 38.9809C111.414 41.7635 111.414 43.1528 111.414 45.9354C107.691 46.7149 105.817 47.0461 102.061 47.5873C102.061 50.9272 102.061 52.5952 102.061 55.9311C106.398 55.3011 108.559 54.9093 112.856 53.9683C112.856 56.751 112.856 58.1403 112.856 60.9229C106.629 62.3162 100.296 63.2411 93.9473 63.8388C93.9473 51.4846 93.9473 39.1263 93.9473 26.768Z" fill="#E9E2C7"/>
<path d="M115.699 23.2019C121.947 21.6833 128.13 19.8336 134.14 17.5356C134.14 20.3183 134.14 21.7076 134.14 24.4902C129.984 26.0613 127.88 26.768 123.648 28.0281C123.648 31.1742 123.648 32.7452 123.648 35.8913C127.315 34.8009 129.136 34.1991 132.743 32.8745C132.743 35.6571 132.743 37.0464 132.743 39.829C129.132 41.1537 127.311 41.7555 123.648 42.8459C123.648 46.1859 123.648 47.8538 123.648 51.1898C127.884 49.9338 129.984 49.2229 134.14 47.6519C134.14 50.4345 134.14 51.8238 134.14 54.6065C128.134 56.9045 121.947 58.7542 115.699 60.2727C115.699 47.9144 115.699 35.5602 115.699 23.2019Z" fill="#E9E2C7"/>
<path d="M0 18.82C0 15.2942 1.22372 12.548 3.67115 10.5892C6.11857 8.63046 9.80991 7.64502 14.7451 7.64502C18.0084 7.64502 20.7829 7.956 23.0769 8.56988V17.6972C20.6093 16.9501 18.174 16.5745 15.771 16.5745C13.368 16.5745 11.8131 16.8491 11.1104 17.4024C10.4036 17.9557 10.0522 18.7594 10.0522 19.8175V42.0342C10.0522 44.1505 11.7161 45.2086 15.044 45.2086C18.3719 45.2086 21.1181 44.8774 23.2748 44.2191V53.1446C20.896 53.8069 18.0043 54.1381 14.6119 54.1381C9.67259 54.1381 6.00549 53.1688 3.60249 51.2262C1.19949 49.2876 0 46.5535 0 43.0277V18.82Z" fill="#E9E2C7"/>
</svg>
