<svg width="169" height="168" viewBox="0 0 169 168" fill="none" xmlns="http://www.w3.org/2000/svg">
<circle cx="84.5" cy="84" r="84" fill="#261C15"/>
<path d="M79.75 28.8C101.45 28.8 112.3 37.2 112.3 54V62.85C112.3 72.55 108.6 80.15 101.2 85.65L87.7 97.05C83.9 100.25 81.55 102.65 80.65 104.25C79.85 105.85 79.45 108.35 79.45 111.75V113.7H110.95V133.5H56.5V109.05C56.5 99.15 60.65 91 68.95 84.6L83.95 71.7C86.15 70 87.6 68.3 88.3 66.6C89.1 64.8 89.5 62.25 89.5 58.95V56.85C89.5 54.55 88.75 52.8 87.25 51.6C85.85 50.3 83.25 49.65 79.45 49.65C71.85 49.65 64.9 51 58.6 53.7V32.1C64.6 29.9 71.65 28.8 79.75 28.8Z" fill="#F9F0EA"/>
</svg>
