<svg width="169" height="169" viewBox="0 0 169 169" fill="none" xmlns="http://www.w3.org/2000/svg">
<circle cx="84.5" cy="84.5" r="84" fill="#261C15"/>
<path d="M77.2 31.5C88.3 31.5 96.6 33.7 102.1 38.1C107.6 42.5 110.35 48.7 110.35 56.7V67.05C110.35 71.35 109.4 74.9 107.5 77.7C105.7 80.5 103.25 82.3 100.15 83.1C107.15 83.8 110.65 88.65 110.65 97.65V112.05C110.65 120.05 107.95 126.25 102.55 130.65C97.15 135.05 89.35 137.25 79.15 137.25C69.05 137.25 61.5 136.2 56.5 134.1V112.8C62.6 115.4 69.35 116.7 76.75 116.7C84.25 116.7 88 114.3 88 109.5V100.8C88 98.4 87.45 96.8 86.35 96C85.25 95.1 83.25 94.65 80.35 94.65H68.65V73.65H80.05C85.15 73.65 87.7 71.2 87.7 66.3V59.25C87.7 54.45 84.05 52.05 76.75 52.05C69.55 52.05 63.6 52.95 58.9 54.75V33.6C63.1 32.2 69.2 31.5 77.2 31.5Z" fill="#F9F0EA"/>
</svg>
