<svg width="50" height="50" viewBox="0 0 50 50" fill="none" xmlns="http://www.w3.org/2000/svg">
<path d="M25.0171 5.0319e-06C19.1877 -0.00369172 13.5403 2.02962 9.05135 5.74836C4.56237 9.4671 1.51402 14.6375 0.433387 20.3655C-0.647251 26.0936 0.307759 32.0191 3.13329 37.1177C5.95882 42.2162 10.4772 46.1672 15.9073 48.2875C15.6885 46.3094 15.4885 43.2688 15.9917 41.1094C16.4479 39.1563 18.923 28.6813 18.923 28.6813C18.923 28.6813 18.1761 27.1844 18.1761 24.9719C18.1761 21.4938 20.1918 18.9 22.7013 18.9C24.8327 18.9 25.864 20.5 25.864 22.4219C25.864 24.5656 24.4983 27.7719 23.792 30.7438C23.2045 33.2313 25.0421 35.2625 27.4953 35.2625C31.9393 35.2625 35.3551 30.575 35.3551 23.8125C35.3551 17.8281 31.0517 13.6438 24.9108 13.6438C17.798 13.6438 13.6228 18.9781 13.6228 24.4906C13.6228 26.6406 14.451 28.9438 15.4823 30.1969C15.5711 30.2913 15.6339 30.4072 15.6645 30.5332C15.6952 30.6591 15.6927 30.7909 15.6573 30.9156C15.4666 31.7031 15.0447 33.4031 14.9635 33.75C14.8541 34.2063 14.601 34.3031 14.1259 34.0844C11.0008 32.6313 9.0507 28.0656 9.0507 24.3969C9.0507 16.5125 14.7822 9.27188 25.5702 9.27188C34.2425 9.27188 40.9835 15.45 40.9835 23.7094C40.9835 32.325 35.5488 39.2594 28.011 39.2594C25.4765 39.2594 23.0951 37.9438 22.2794 36.3875L20.7231 42.3313C20.1575 44.5031 18.6324 47.225 17.6136 48.8844C21.0512 49.9472 24.6777 50.2555 28.2453 49.7883C31.813 49.3211 35.2378 48.0894 38.2858 46.1772C41.3337 44.2651 43.933 41.7176 45.906 38.7088C47.8791 35.7 49.1794 32.3008 49.7181 28.7434C50.2569 25.1859 50.0214 21.5542 49.0278 18.0961C48.0341 14.638 46.3057 11.4352 43.9607 8.70637C41.6156 5.97753 38.7091 3.787 35.4398 2.28442C32.1704 0.781849 28.6152 0.0026322 25.0171 5.0319e-06Z" fill="#E9E2C7"/>
</svg>
