<svg width="115" height="110" viewBox="0 0 115 110" fill="none" xmlns="http://www.w3.org/2000/svg">
<g clip-path="url(#clip0_1125_253)">
<path d="M57.4999 0.259277C46.1252 0.259277 36.8067 9.57778 36.8067 20.9525C36.8067 27.4663 39.8661 33.3018 44.6141 37.1033H25.1984L0.972168 109.782H114.028L89.8015 37.1033H70.3858C75.1338 33.3018 78.1931 27.4663 78.1931 20.9525C78.1931 9.57778 68.8746 0.259277 57.4999 0.259277ZM57.4999 9.3441C63.9648 9.3441 69.1083 14.4876 69.1083 20.9525C69.1083 27.4173 63.9648 32.5609 57.4999 32.5609C51.0351 32.5609 45.8916 27.4173 45.8916 20.9525C45.8916 14.4876 51.0351 9.3441 57.4999 9.3441ZM36.7525 60.5598H42.6829V68.9539L51.2309 60.5595H58.1159L47.0418 71.4487L59.2558 83.5552H51.832L42.6829 74.4987V83.5552H36.7525V60.5598ZM67.0186 65.9198C68.2198 65.9198 69.2777 66.1555 70.1914 66.6279C71.105 67.1003 71.9423 67.8443 72.7024 68.8613V66.3049H78.2471V81.8152C78.2471 84.5876 77.3689 86.7029 75.6131 88.161C73.8675 89.6297 71.3311 90.3633 68.004 90.3633C66.9259 90.3633 65.8842 90.2813 64.8773 90.117C63.8473 89.947 62.8326 89.6947 61.843 89.3625V85.0648C62.8085 85.6195 63.7533 86.0303 64.677 86.2973C65.6016 86.5744 66.531 86.7132 67.4655 86.7132C69.2729 86.7132 70.5972 86.318 71.4391 85.5271C72.2812 84.7368 72.7024 83.4995 72.7024 81.8155V80.6294C71.9428 81.6353 71.1055 82.3747 70.1914 82.8471C69.2779 83.319 68.2198 83.5557 67.0186 83.5557C64.9132 83.5557 63.1732 82.7293 61.7973 81.0761C60.4212 79.4126 59.733 77.2973 59.733 74.7303C59.733 72.1528 60.4212 70.0426 61.7973 68.3997C63.1732 66.7468 64.9132 65.9198 67.0186 65.9198ZM69.0672 69.8934C67.9273 69.8934 67.0388 70.3149 66.4023 71.1565C65.7656 71.9988 65.4474 73.19 65.4474 74.7303C65.4474 76.3116 65.7553 77.5128 66.3715 78.334C66.9878 79.1453 67.8864 79.5511 69.0672 79.5511C70.2172 79.5511 71.1103 79.1297 71.7472 78.2878C72.3837 77.4457 72.7021 76.2599 72.7021 74.7301C72.7021 73.1897 72.3837 71.9986 71.747 71.1567C71.1103 70.3146 70.2172 69.8934 69.0669 69.8934H69.0672Z" fill="#261C15"/>
</g>
<defs>
<clipPath id="clip0_1125_253">
<rect width="114.365" height="110" fill="white" transform="translate(0.317383)"/>
</clipPath>
</defs>
</svg>
